<svg fill="#E21D24" xmlns="http://www.w3.org/2000/svg" xmlns:xlink="http://www.w3.org/1999/xlink" x="0px" y="0px" viewBox="0 0 504.1 504.1" style="enable-background:new 0 0 504.1 504.1;" xml:space="preserve">
	<path d="M504.1,252.1c0,139.2-112.9,252.1-252.1,252.1"/>
	<path d="M0,252.1C0,112.9,112.9,0,252.1,0"/>
	<path d="M252.1,0c139.2,0,252.1,112.9,252.1,252.1"/>
	<path d="M252.1,504.1C112.9,504.1,0,391.3,0,252.1"/>
	<path d="M252.1,104.7c81.4,0,147.4,66,147.4,147.4"/>
	<path d="M252.1,399.4c-81.4,0-147.4-66-147.4-147.4"/>
	<path d="M104.7,252.1c0-81.4,66-147.4,147.4-147.4"/>
	<path d="M399.4,252.1c0,81.4-66,147.4-147.4,147.4"/>
	<path d="M298.2,205.9c25.5,25.5,25.5,66.9,0,92.4c-25.5,25.5-66.8,25.5-92.4,0c-25.5-25.5-25.5-66.8,0-92.4 C231.4,180.4,272.7,180.4,298.2,205.9z"/>
	<path d="M252,186.8c36.1,0,65.3,29.2,65.3,65.3c0,36-29.2,65.3-65.3,65.3"/>
</svg>
