<svg fill="#e21d24" xmlns="http://www.w3.org/2000/svg" xmlns:xlink="http://www.w3.org/1999/xlink" x="0px" y="0px" viewBox="0 0 504.123 504.123" style="enable-background: new 0 0 504.123 504.123" xml:space="preserve">
	<path d="M504.123,252.062c0,139.209-112.853,252.062-252.062,252.062"></path>
	<path d="M0,252.062C0,112.853,112.853,0,252.062,0"></path>
	<path d="M252.062,0C391.27,0,504.123,112.853,504.123,252.062"></path>
	<path d="M252.062,504.123C112.853,504.123,0,391.27,0,252.062"></path>
	<path d="M252.062,104.692c81.384,0,147.369,65.985,147.369,147.369"></path>
	<path d="M252.062,399.431c-81.384,0-147.369-65.985-147.369-147.369"></path>
	<path d="M104.692,252.062c0-81.384,65.985-147.369,147.369-147.369"></path>
	<path d="M399.431,252.062c0,81.384-65.985,147.369-147.369,147.369"></path>
	<path d="M298.228,205.871c25.521,25.521,25.521,66.859,0.016,92.373 c-25.505,25.521-66.844,25.521-92.373-0.016c-25.505-25.49-25.505-66.828,0.016-92.357 C231.4,180.374,272.738,180.374,298.228,205.871z"></path>
	<path d="M252.046,186.762c36.108,0,65.323,29.215,65.323,65.323 c0.016,36.045-29.231,65.292-65.292,65.292"></path>
</svg>