<?xml version="1.0" standalone="no"?>
<!DOCTYPE svg PUBLIC "-//W3C//DTD SVG 20010904//EN"
 "http://www.w3.org/TR/2001/REC-SVG-20010904/DTD/svg10.dtd">
<svg version="1.0" xmlns="http://www.w3.org/2000/svg"
 width="700.000000pt" height="700.000000pt" viewBox="0 0 700.000000 700.000000"
 preserveAspectRatio="xMidYMid meet">
<metadata>
Created by potrace 1.14, written by Peter Selinger 2001-2017
</metadata>
<g transform="translate(0.000000,700.000000) scale(0.100000,-0.100000)"
fill="#000000" stroke="none">
<path d="M3277 6994 c-1 -1 -41 -4 -88 -8 -47 -4 -95 -8 -105 -10 -10 -2 -45
-7 -78 -11 -101 -12 -214 -35 -381 -76 -296 -75 -597 -198 -880 -362 -103 -60
-265 -165 -315 -204 -8 -6 -51 -40 -95 -74 -426 -331 -813 -825 -1020 -1299
-25 -58 -50 -114 -55 -125 -45 -93 -150 -427 -176 -560 -2 -11 -11 -54 -19
-95 -8 -41 -17 -92 -21 -114 -3 -21 -7 -48 -10 -60 -2 -11 -7 -50 -10 -86 -3
-36 -7 -78 -10 -95 -2 -16 -7 -95 -10 -174 l-7 -144 1747 1747 c960 960 1746
1748 1746 1751 0 5 -207 3 -213 -1z"/>
<path d="M4372 6128 c480 -480 1268 -1268 1751 -1751 l879 -879 -7 163 c-3 90
-8 166 -10 169 -1 3 -6 41 -10 85 -3 43 -8 82 -10 85 -2 3 -6 30 -10 60 -3 30
-10 71 -15 90 -5 19 -12 51 -15 70 -13 75 -67 275 -106 392 -349 1038 -1164
1854 -2204 2206 -167 56 -419 119 -555 137 -19 3 -46 7 -60 10 -13 2 -54 7
-90 11 -36 3 -78 8 -95 10 -16 2 -95 6 -173 10 l-144 6 874 -874z"/>
<path d="M3387 5544 c-1 -1 -36 -4 -77 -8 -41 -3 -84 -8 -95 -10 -11 -2 -40
-7 -65 -11 -71 -12 -78 -13 -164 -35 -156 -41 -257 -79 -410 -156 -615 -310
-1044 -931 -1111 -1610 -10 -97 -13 -204 -6 -204 7 0 2031 2023 2031 2030 0 5
-97 9 -103 4z"/>
<path d="M3510 5541 c0 -8 2023 -2031 2032 -2031 6 0 4 66 -7 195 -5 64 -19
152 -35 225 -6 25 -12 54 -15 65 -49 226 -182 507 -341 722 -73 99 -99 128
-214 243 -81 81 -288 250 -306 250 -3 0 -24 13 -47 28 -222 150 -551 262 -867
297 -89 10 -200 13 -200 6z"/>
<path d="M3380 4399 c-79 -13 -93 -16 -175 -44 -292 -97 -519 -350 -590 -655
-22 -95 -26 -264 -8 -354 82 -433 434 -737 868 -751 424 -13 795 265 906 680
32 117 32 327 1 445 -53 199 -175 382 -337 507 -93 72 -248 141 -366 164 -74
14 -234 19 -299 8z"/>
<path d="M4 3353 c4 -76 8 -151 10 -168 2 -16 7 -58 11 -92 18 -164 37 -272
81 -448 24 -96 76 -269 93 -310 5 -11 25 -65 46 -120 63 -166 249 -531 312
-610 4 -6 34 -49 65 -95 170 -255 433 -535 708 -755 92 -74 370 -265 386 -265
4 0 15 -6 23 -14 46 -40 413 -212 571 -268 83 -29 268 -87 293 -92 12 -2 60
-13 107 -24 92 -23 172 -39 235 -48 22 -3 47 -7 55 -9 8 -2 47 -7 85 -11 39
-3 84 -8 100 -10 67 -8 305 -16 305 -10 0 8 -3478 3486 -3486 3486 -3 0 -3
-62 0 -137z"/>
<path d="M1455 3427 c25 -636 346 -1232 860 -1594 275 -193 569 -310 900 -358
119 -17 275 -26 275 -16 0 8 -2023 2031 -2031 2031 -4 0 -5 -28 -4 -63z"/>
<path d="M4522 2477 c-556 -556 -1012 -1015 -1012 -1018 0 -3 28 -5 63 -4 319
10 678 112 932 264 33 20 72 42 87 50 63 32 248 181 342 275 348 345 555 778
600 1251 12 123 15 195 8 195 -4 0 -463 -456 -1020 -1013z"/>
<path d="M5241 1743 l-1743 -1745 149 6 c81 4 160 8 173 10 14 3 56 7 93 11
37 3 78 8 90 11 12 2 38 6 57 9 19 3 46 7 60 10 14 3 41 8 60 11 19 4 71 15
115 26 44 10 87 21 96 23 223 51 591 200 823 334 49 28 91 51 93 51 10 0 268
180 353 247 152 119 324 280 450 422 36 41 70 79 76 85 29 30 185 242 240 326
120 184 241 412 315 597 66 163 147 422 175 558 16 75 54 300 60 350 17 149
28 405 17 404 -4 0 -793 -786 -1752 -1746z"/>
</g>
</svg>
